<?xml version="1.0" standalone="no"?>
<!DOCTYPE svg PUBLIC "-//W3C//DTD SVG 20010904//EN"
 "http://www.w3.org/TR/2001/REC-SVG-20010904/DTD/svg10.dtd">
<svg version="1.0" xmlns="http://www.w3.org/2000/svg"
 width="1280.000000pt" height="1024.000000pt" viewBox="0 0 1280.000000 1024.000000"
 preserveAspectRatio="xMidYMid meet">
<metadata>
Created by potrace 1.16, written by Peter Selinger 2001-2019
</metadata>
<g transform="translate(0.000000,1024.000000) scale(0.100000,-0.100000)"
fill="#000000" stroke="none">
<path d="M6245 7389 c-420 -34 -782 -134 -1156 -321 -458 -228 -823 -547
-1094 -953 -683 -1024 -531 -2337 371 -3205 219 -211 444 -369 723 -508 318
-159 623 -254 971 -302 990 -136 1987 197 2647 884 306 318 537 724 641 1126
90 347 105 686 46 1040 -109 651 -506 1267 -1084 1680 -584 417 -1328 619
-2065 559z m685 -78 c168 -25 301 -53 452 -97 919 -267 1646 -964 1892 -1814
71 -244 90 -387 90 -665 0 -278 -19 -421 -90 -665 -246 -851 -973 -1547 -1893
-1814 -311 -91 -534 -121 -886 -120 -289 0 -404 11 -639 60 -1073 227 -1919
997 -2156 1966 -55 225 -65 312 -65 573 0 261 10 348 65 573 62 252 188 541
334 761 309 466 776 840 1321 1054 286 113 547 173 910 211 107 11 535 -4 665
-23z"/>
<path d="M6001 6620 c-18 -4 -45 -20 -60 -34 -22 -23 -26 -35 -26 -86 0 -51 4
-63 27 -86 28 -28 101 -43 152 -30 24 6 26 10 26 67 l0 60 -42 -3 c-46 -3 -55
-21 -13 -26 21 -3 25 -8 25 -38 0 -20 -5 -35 -12 -35 -99 -10 -150 41 -126
127 12 45 56 68 115 61 30 -3 43 -1 43 8 0 23 -48 29 -109 15z"/>
<path d="M6434 6620 c-16 -6 -28 -29 -44 -77 -13 -37 -31 -89 -41 -115 -18
-47 -18 -48 1 -48 14 0 23 11 31 40 12 39 13 40 56 40 43 0 45 -2 60 -40 11
-26 22 -40 34 -40 16 0 17 4 8 28 -6 15 -26 69 -45 121 -19 52 -36 96 -37 97
-1 1 -12 -2 -23 -6z m35 -122 c1 -14 -7 -18 -35 -18 -25 0 -34 4 -30 13 3 6
11 32 18 55 l13 44 17 -39 c9 -21 17 -46 17 -55z"/>
<path d="M6611 6618 c-56 -30 -44 -87 26 -121 38 -17 49 -28 51 -50 4 -33 -25
-48 -75 -37 -20 5 -36 4 -39 -2 -10 -16 17 -28 64 -28 48 0 92 33 92 70 0 22
-45 70 -65 70 -7 0 -23 8 -35 18 -17 14 -21 24 -15 41 6 20 12 22 51 19 36 -2
44 0 42 12 -4 20 -65 24 -97 8z"/>
<path d="M6835 6616 c-45 -20 -67 -50 -72 -99 -9 -81 44 -137 129 -137 71 0
78 6 78 71 l0 59 -46 0 c-32 0 -44 -4 -41 -12 2 -7 9 -14 15 -14 7 -1 19 -2
27 -3 10 -1 15 -12 15 -36 0 -35 0 -35 -44 -35 -79 0 -122 62 -92 135 18 42
42 55 105 55 28 0 51 4 51 9 0 23 -78 28 -125 7z"/>
<path d="M7071 6617 c-84 -43 -89 -181 -9 -223 83 -43 178 16 178 111 0 92
-91 152 -169 112z m109 -45 c27 -34 27 -101 -1 -136 -27 -34 -86 -37 -115 -5
-26 29 -26 119 0 147 33 37 85 35 116 -6z"/>
<path d="M7265 6608 c63 -247 81 -272 114 -160 11 37 24 83 29 102 8 34 9 31
33 -65 20 -81 28 -100 43 -100 15 0 25 23 52 115 39 132 39 130 20 130 -14 0
-28 -39 -57 -154 l-12 -49 -25 102 c-20 81 -29 101 -43 101 -18 0 -29 -28 -60
-155 l-13 -50 -25 100 c-20 76 -30 101 -44 103 -14 3 -17 -1 -12 -20z"/>
<path d="M5183 6608 c2 -7 19 -13 38 -13 l34 0 3 -108 c2 -99 4 -107 22 -107
19 0 20 7 20 105 0 58 3 105 8 106 4 1 20 2 36 3 16 0 31 7 34 14 3 9 -21 12
-98 12 -77 0 -101 -3 -97 -12z"/>
<path d="M5400 6500 c0 -113 1 -120 20 -120 18 0 20 7 20 55 l0 55 60 0 60 0
0 -55 c0 -48 2 -55 20 -55 19 0 20 7 20 120 0 113 -1 120 -20 120 -17 0 -20
-7 -20 -50 l0 -50 -60 0 -60 0 0 50 c0 43 -3 50 -20 50 -19 0 -20 -7 -20 -120z"/>
<path d="M5650 6500 l0 -120 76 0 c56 0 75 3 71 13 -2 7 -23 12 -53 12 l-49 0
-3 43 -3 42 50 0 c39 0 51 4 51 15 0 11 -12 15 -50 15 l-50 0 0 35 c0 37 0 37
63 38 24 0 37 5 37 14 0 10 -18 13 -70 13 l-70 0 0 -120z"/>
<path d="M6170 6500 l0 -120 70 0 c56 0 70 3 70 15 0 12 -13 15 -55 15 l-55 0
0 105 c0 87 -3 105 -15 105 -12 0 -15 -20 -15 -120z"/>
<path d="M6497 5822 c-21 -21 -34 -41 -31 -45 10 -10 13 -117 3 -111 -5 3 -9
-6 -9 -20 0 -25 -16 -44 -22 -26 -1 5 -3 -12 -3 -39 0 -27 3 -47 8 -44 4 2 7
13 7 24 0 19 1 19 29 -2 l29 -22 26 21 c20 16 23 21 11 26 -8 3 -14 2 -14 -2
3 -20 -3 -23 -18 -11 -17 13 -17 13 -3 -5 14 -18 13 -19 -3 -13 -10 4 -21 7
-23 7 -3 0 -2 5 1 10 4 6 1 9 -5 8 -16 -4 -20 21 -9 50 5 13 14 20 20 16 8 -5
8 -9 -1 -14 -8 -5 -9 -10 -2 -14 19 -11 33 29 18 50 -14 19 -11 44 6 44 5 0 6
-4 3 -10 -3 -5 1 -10 9 -10 26 0 18 19 -10 26 -19 5 -22 9 -12 15 10 7 9 9 -4
9 -35 0 -18 76 17 79 6 1 10 7 10 14 0 6 7 12 15 12 8 0 14 -6 12 -13 -1 -8 2
-11 8 -7 8 5 7 11 -1 21 -16 20 -21 18 -62 -24z"/>
<path d="M6580 5823 c0 -6 7 -16 15 -23 19 -16 19 -35 -1 -54 -13 -14 -13 -16
-1 -16 9 0 18 13 22 31 6 24 2 36 -14 52 -12 12 -21 16 -21 10z"/>
<path d="M6645 5780 c3 -5 1 -10 -5 -10 -6 0 -8 -4 -5 -10 3 -5 0 -10 -7 -10
-10 0 -10 -2 1 -9 8 -5 12 -18 8 -30 -3 -14 0 -21 9 -21 8 0 18 -9 22 -20 7
-19 8 -19 21 2 11 18 11 20 -2 15 -11 -4 -15 -1 -12 14 2 10 -1 19 -7 19 -5 0
-7 -7 -4 -16 3 -8 2 -12 -4 -9 -11 7 -13 45 -4 69 3 9 10 13 15 10 5 -3 17 0
26 5 15 8 11 10 -20 11 -23 0 -36 -4 -32 -10z"/>
<path d="M6708 5769 c-10 -5 -15 -16 -11 -24 3 -9 -1 -23 -8 -32 -12 -15 -12
-16 4 -10 10 4 16 3 12 -2 -3 -5 -1 -12 4 -15 16 -10 24 14 10 30 -9 11 -9 21
-1 39 7 14 11 25 9 25 -1 0 -10 -5 -19 -11z"/>
<path d="M6529 5753 c-12 -16 -12 -17 2 -6 12 10 18 10 28 0 10 -9 11 -8 6 6
-4 9 -11 17 -15 17 -4 0 -14 -8 -21 -17z"/>
<path d="M6727 5754 c-4 -4 -7 -14 -7 -23 0 -11 3 -12 11 -4 6 6 10 16 7 23
-2 6 -7 8 -11 4z"/>
<path d="M6660 5736 c0 -2 7 -6 15 -10 8 -3 15 -1 15 4 0 6 -7 10 -15 10 -8 0
-15 -2 -15 -4z"/>
<path d="M6557 5713 c-12 -11 -8 -23 9 -23 8 0 12 5 9 10 -3 6 -1 10 5 10 8 0
10 -9 5 -27 -9 -38 -25 -55 -45 -50 -10 2 -17 -2 -17 -9 0 -8 11 -14 24 -14
13 0 22 3 22 8 -4 21 3 22 19 2 15 -18 20 -20 29 -9 14 17 5 71 -10 62 -5 -3
-7 -1 -4 5 17 26 -24 57 -46 35z m63 -83 c0 -5 -5 -12 -12 -16 -7 -4 -8 -3 -4
4 4 7 2 12 -3 12 -6 0 -11 4 -11 10 0 5 7 7 15 4 8 -4 15 -10 15 -14z"/>
<path d="M6394 5667 c-4 -7 -4 -9 1 -5 4 4 14 3 22 -3 8 -7 13 -8 13 -1 0 15
-28 23 -36 9z"/>
<path d="M6647 5663 c-4 -3 -7 -16 -7 -28 0 -12 -3 -25 -7 -29 -5 -4 -8 -13
-8 -19 0 -7 -9 -11 -20 -9 -15 2 -16 0 -7 -6 11 -7 10 -10 -3 -16 -9 -3 -22
-3 -28 1 -7 3 -9 2 -4 -2 4 -5 0 -16 -8 -25 -14 -15 -14 -18 0 -30 13 -11 15
-9 15 11 0 16 10 30 30 41 29 17 30 17 30 -4 0 -39 10 -12 19 53 9 66 9 73 -2
62z"/>
<path d="M6538 5653 c7 -3 16 -2 19 1 4 3 -2 6 -13 5 -11 0 -14 -3 -6 -6z"/>
<path d="M6666 5624 c-11 -28 -6 -39 22 -51 l27 -13 -23 20 c-17 14 -22 25
-17 40 7 24 0 27 -9 4z"/>
<path d="M6366 5615 c-3 -9 -6 -26 -5 -38 1 -14 4 -9 9 13 9 37 7 52 -4 25z"/>
<path d="M6415 5590 c-3 -5 -1 -10 4 -10 6 0 11 5 11 10 0 6 -2 10 -4 10 -3 0
-8 -4 -11 -10z"/>
<path d="M6651 5553 c0 -12 -4 -28 -7 -37 -4 -10 -1 -16 10 -16 8 0 22 -12 30
-27 8 -16 15 -23 16 -17 0 6 -9 22 -19 36 -11 13 -21 37 -24 53 -3 20 -4 23
-6 8z"/>
<path d="M6371 5543 c-1 -7 -10 -22 -21 -33 -17 -17 -20 -32 -19 -92 1 -59 3
-66 9 -38 4 19 8 29 9 22 0 -7 12 -29 25 -50 21 -33 22 -40 10 -57 -16 -21
-17 -20 -33 20 l-11 30 5 -30 c3 -16 7 -37 8 -45 1 -10 -10 -17 -37 -20 -72
-9 -76 -73 -5 -77 36 -2 32 1 -14 11 -22 5 -28 12 -25 29 4 30 63 37 84 10 14
-17 14 -16 4 5 -9 19 -8 22 10 22 14 0 19 -4 14 -12 -6 -10 -4 -10 7 0 7 6 17
12 22 12 4 0 5 -6 0 -12 -4 -7 5 -5 21 5 15 11 37 17 47 14 23 -6 24 -1 3 20
-10 10 -14 29 -12 52 l3 36 -42 -3 c-39 -3 -43 -1 -67 37 -32 49 -33 78 -5
107 12 12 19 29 16 36 -4 10 -6 10 -6 1z"/>
<path d="M6710 5539 c0 -8 9 -30 19 -50 13 -25 19 -57 20 -107 1 -73 -5 -87
-29 -72 -11 7 -12 14 -2 34 11 25 11 25 -15 13 -22 -10 -28 -8 -45 13 -12 15
-17 32 -13 47 3 13 1 23 -4 23 -11 0 -21 -35 -21 -72 0 -16 -5 -28 -11 -28 -7
0 -8 11 -2 33 4 17 7 52 6 76 -1 25 3 52 9 60 11 14 10 14 -4 1 -10 -9 -18
-34 -19 -60 -1 -25 -7 -51 -13 -59 -6 -9 -7 -12 -1 -9 6 4 10 -19 11 -60 0
-43 -2 -58 -7 -42 l-7 25 -1 -26 c-1 -26 -1 -26 80 -27 51 0 86 -5 93 -13 8
-9 7 -10 -7 -6 -15 6 -16 3 -7 -12 7 -14 6 -21 -3 -24 -7 -3 -4 -6 7 -6 12 -1
16 4 13 14 -4 8 -2 17 4 20 5 4 7 11 4 16 -4 5 4 9 16 9 17 0 19 -3 10 -14
-20 -24 -22 -56 -3 -56 12 0 13 3 5 11 -14 14 -5 42 10 32 6 -4 7 -1 2 7 -5 8
-3 11 6 8 8 -3 14 -17 14 -31 -1 -14 3 -23 7 -21 16 10 8 43 -14 58 -12 9 -35
16 -50 16 -25 0 -27 2 -18 26 6 14 10 58 10 97 0 57 -5 82 -25 121 -14 27 -25
43 -25 35z m-81 -251 c-12 -21 -13 -21 -17 -4 -2 10 0 21 5 25 4 3 8 12 9 19
2 30 7 35 11 10 2 -15 -1 -37 -8 -50z"/>
<path d="M6423 5500 c-11 -16 -10 -18 2 -14 8 4 15 12 15 20 0 19 -3 18 -17
-6z"/>
<path d="M6455 5461 c3 -18 5 -45 6 -60 0 -14 3 -20 6 -13 2 6 10 9 16 5 7 -4
6 0 -1 10 -8 9 -12 20 -9 24 3 4 -1 22 -9 38 l-14 30 5 -34z"/>
<path d="M6562 5455 c0 -16 2 -22 5 -12 2 9 2 23 0 30 -3 6 -5 -1 -5 -18z"/>
<path d="M6371 5458 c-1 -22 18 -33 32 -19 8 8 7 11 -5 11 -9 0 -19 6 -21 13
-3 7 -6 6 -6 -5z"/>
<path d="M6681 5428 c-1 -10 6 -18 14 -18 8 0 15 5 15 11 0 5 -4 8 -9 5 -5 -4
-12 0 -14 6 -3 8 -6 6 -6 -4z"/>
<path d="M6655 5419 c-4 -6 -5 -12 -2 -15 2 -3 7 2 10 11 7 17 1 20 -8 4z"/>
<path d="M6480 5332 c0 -12 19 -26 26 -19 2 2 -2 10 -11 17 -9 8 -15 8 -15 2z"/>
<path d="M6533 5305 c0 -8 4 -12 9 -9 5 3 6 10 3 15 -9 13 -12 11 -12 -6z"/>
<path d="M6557 5280 c-3 -11 -1 -20 4 -20 5 0 9 9 9 20 0 11 -2 20 -4 20 -2 0
-6 -9 -9 -20z"/>
<path d="M6520 5264 c0 -6 9 -19 20 -29 11 -10 17 -21 15 -26 -6 -8 83 -25 90
-17 3 3 -7 15 -22 29 -25 22 -26 22 -9 2 23 -27 11 -30 -17 -5 -11 9 -17 11
-13 5 15 -27 -14 -12 -38 20 -14 17 -26 27 -26 21z"/>
<path d="M6651 5213 c9 -15 23 -23 39 -22 21 1 21 2 5 6 -11 3 -29 12 -39 22
-18 15 -18 15 -5 -6z"/>
<path d="M6382 5216 c4 -5 1 -14 -7 -20 -12 -8 1 -10 51 -8 36 2 63 7 59 10
-3 3 -22 5 -41 4 -20 -2 -43 3 -53 10 -9 7 -13 8 -9 4z"/>
<path d="M6477 5133 c-3 -4 28 -7 69 -5 48 2 74 0 74 -7 0 -6 -4 -11 -10 -11
-5 0 -10 -9 -10 -20 0 -18 -7 -20 -55 -20 -48 0 -55 2 -55 20 0 11 -4 20 -9
20 -5 0 -6 -20 -4 -44 l5 -45 -43 -4 c-24 -2 21 -3 101 -3 141 1 145 2 148 23
2 12 9 27 17 33 12 10 13 6 11 -22 -2 -18 -1 -25 1 -15 2 9 14 18 26 18 15 1
17 3 6 6 -10 2 -19 17 -21 34 -4 24 -1 29 16 30 18 1 19 2 3 6 -12 3 -30 -6
-48 -23 -24 -23 -28 -34 -23 -57 6 -27 5 -28 -28 -25 -35 3 -37 11 -27 88 4
24 2 25 -68 28 -39 2 -74 -1 -76 -5z m228 -53 c-10 -11 -20 -18 -23 -15 -3 3
3 14 13 25 10 11 20 18 23 15 3 -3 -3 -14 -13 -25z m-105 -40 c0 -18 -7 -20
-55 -20 -48 0 -55 2 -55 20 0 18 7 20 55 20 48 0 55 -2 55 -20z"/>
<path d="M6303 5113 c9 -2 25 -2 35 0 9 3 1 5 -18 5 -19 0 -27 -2 -17 -5z"/>
<path d="M6370 5112 c0 -6 -8 -12 -17 -13 -14 0 -13 -2 4 -9 12 -5 30 -21 39
-35 15 -24 18 -25 27 -10 7 13 2 25 -22 48 -17 18 -31 26 -31 19z m38 -40 c20
-30 11 -28 -19 4 -13 15 -18 25 -10 22 8 -2 21 -14 29 -26z"/>
<path d="M6771 5116 c2 -2 24 -6 48 -9 29 -4 40 -2 30 4 -13 8 -88 14 -78 5z"/>
<path d="M6235 5100 c-3 -6 1 -17 9 -26 9 -8 16 -11 16 -5 0 5 6 11 13 14 6 2
4 3 -5 2 -27 -4 -32 13 -6 18 23 4 23 4 1 6 -12 0 -25 -4 -28 -9z"/>
<path d="M6541 5094 c0 -11 3 -14 6 -6 3 7 2 16 -1 19 -3 4 -6 -2 -5 -13z"/>
<path d="M6768 5093 c6 -2 18 -2 25 0 6 3 1 5 -13 5 -14 0 -19 -2 -12 -5z"/>
<path d="M7043 5080 c-4 -15 -9 -17 -23 -10 -10 6 -25 10 -32 9 -7 0 -3 -4 9
-9 19 -8 20 -12 10 -34 -7 -14 -16 -26 -20 -26 -5 0 -5 -4 -2 -10 3 -5 -3 -28
-15 -52 -11 -23 -20 -48 -20 -55 0 -7 -8 -13 -17 -13 -13 0 -15 -2 -5 -8 12
-8 7 -42 -7 -42 -3 0 -31 7 -61 15 -30 8 -66 14 -80 14 -14 -1 4 -9 40 -17
l65 -16 -60 -6 c-75 -8 -625 -13 -625 -7 0 3 35 13 78 23 88 20 95 24 82 44
-9 13 -10 13 -10 0 0 -11 -22 -21 -76 -34 -41 -9 -81 -19 -88 -22 -18 -7 -30
27 -14 38 10 6 9 8 -3 8 -22 0 -81 154 -65 170 8 8 6 9 -6 5 -11 -4 -18 -2
-18 5 0 6 -4 9 -9 6 -5 -3 -11 3 -14 14 -5 21 -41 28 -52 10 -4 -6 4 -9 17 -7
18 1 24 -3 26 -25 4 -34 -14 -68 -35 -68 -14 0 -13 4 5 20 12 12 22 27 22 35
0 26 -23 29 -42 5 -23 -28 -34 -20 -17 12 11 21 11 22 -4 9 -10 -7 -17 -20
-17 -27 0 -8 -20 -40 -45 -72 -43 -55 -95 -179 -95 -226 0 -12 -18 -50 -40
-86 -22 -36 -40 -72 -40 -80 0 -19 47 -120 56 -120 9 0 -6 54 -18 61 -7 4 -6
14 2 30 11 23 11 24 -6 4 -16 -20 -16 -20 -11 3 3 12 1 20 -4 16 -18 -11 -8
21 22 68 31 48 52 61 29 18 -7 -12 -8 -20 -2 -16 9 5 11 -5 15 -73 1 -16 5
-27 10 -24 4 2 8 -6 9 -19 2 -32 3 -39 15 -68 11 -27 26 -83 17 -62 -3 6 -9
10 -14 7 -5 -3 -11 4 -15 15 -3 11 -11 20 -16 20 -5 0 -9 10 -9 23 -1 20 -2
20 -11 4 -8 -14 -1 -28 39 -75 76 -89 89 -143 46 -199 -17 -23 -24 -43 -21
-59 2 -13 0 -24 -4 -24 -5 0 -9 -4 -9 -10 0 -5 7 -7 15 -4 26 10 16 -15 -12
-31 -21 -12 -23 -14 -6 -10 22 6 26 -7 10 -32 -6 -9 -3 -11 9 -6 12 4 15 3 10
-5 -4 -7 -13 -12 -21 -12 -8 0 -16 -4 -20 -10 -3 -5 7 -5 24 1 28 10 30 14 25
46 -4 24 -2 33 5 28 14 -8 14 1 0 27 -8 15 -8 19 0 14 6 -4 19 -2 28 3 17 10
17 10 1 11 -12 0 -15 5 -11 17 6 14 9 13 25 -7 10 -12 15 -27 11 -33 -3 -6 -1
-7 6 -3 9 6 8 13 -3 31 -10 15 -12 26 -6 30 6 3 13 -1 16 -9 3 -9 10 -13 16
-10 5 3 1 12 -9 20 -15 11 -15 14 -3 15 8 1 18 1 22 0 4 0 4 7 1 16 -4 11 -8
13 -11 5 -4 -14 -32 -16 -32 -2 0 6 5 10 10 10 6 0 10 5 10 11 0 8 -5 7 -15
-1 -20 -17 -32 -5 -15 15 8 9 8 15 2 15 -22 0 -18 55 7 90 20 28 21 31 5 18
-28 -24 -47 -23 -39 2 4 11 2 20 -4 20 -15 0 -14 27 2 33 7 3 5 6 -5 6 -27 1
-22 16 22 63 22 24 40 46 40 50 0 4 -18 -12 -40 -34 -22 -23 -40 -46 -40 -52
0 -14 -14 2 -16 20 -1 8 4 18 12 21 15 5 10 23 -7 23 -6 0 -7 -4 -4 -10 3 -5
2 -10 -3 -10 -10 0 -24 51 -16 59 2 2 10 -2 19 -9 13 -11 14 -10 9 4 -3 9 -12
16 -19 16 -17 0 -35 81 -33 147 1 43 5 54 21 59 18 6 19 7 3 16 -15 8 -15 11
5 27 18 14 20 21 11 37 -14 27 22 107 71 153 34 32 35 33 46 13 6 -12 11 -42
12 -69 l0 -48 15 40 c7 22 21 52 29 67 8 14 15 34 15 44 0 36 27 -9 66 -110
25 -68 34 -101 26 -104 -8 -2 -12 -36 -12 -105 0 -55 -4 -97 -8 -91 -17 19
-65 182 -78 264 l-13 85 5 -74 c3 -42 20 -121 40 -184 19 -60 37 -128 40 -150
3 -23 7 -57 10 -76 5 -30 3 -33 -9 -23 -12 10 -13 8 -9 -13 2 -15 0 -25 -7
-25 -6 0 -11 -7 -11 -16 0 -8 -5 -12 -10 -9 -6 4 -8 10 -5 15 3 5 2 11 -3 14
-4 3 -13 -13 -19 -35 -12 -46 -6 -48 36 -13 l31 26 0 -25 c0 -23 -26 -113 -45
-159 -4 -11 -3 -18 3 -18 6 0 13 8 15 18 3 9 5 -2 6 -25 1 -42 -21 -79 -40
-68 -5 4 -9 -1 -9 -9 0 -9 -7 -16 -15 -16 -12 0 -9 9 11 40 15 22 25 42 22 45
-2 3 -22 -23 -44 -57 -21 -33 -56 -73 -77 -89 -20 -15 -32 -29 -26 -31 12 -4
-57 -125 -94 -165 l-20 -23 -19 41 c-10 23 -18 49 -18 59 0 10 -9 20 -20 23
-11 3 -20 1 -20 -4 0 -5 7 -9 15 -9 9 0 15 -9 15 -21 0 -15 -4 -19 -16 -15 -9
3 -30 6 -47 6 -30 0 -32 2 -32 35 0 40 1 41 21 20 19 -19 31 -19 31 0 0 8 -4
12 -8 9 -4 -2 -24 6 -45 18 -37 22 -38 22 -13 29 15 4 18 7 7 8 -10 1 -36 -8
-58 -20 -29 -15 -40 -27 -40 -44 0 -13 6 -25 13 -28 9 -3 13 3 13 16 -1 25 32
36 45 15 13 -20 11 -25 -25 -65 -38 -44 -56 -75 -56 -98 0 -32 32 -85 62 -103
21 -12 28 -22 24 -37 -5 -20 -5 -20 9 -1 8 11 15 15 15 10 0 -6 10 -10 23 -9
13 1 33 -9 49 -26 15 -15 28 -23 30 -17 2 6 18 2 38 -11 19 -11 40 -21 45 -21
6 0 -13 13 -41 29 -28 16 -65 45 -82 65 -20 24 -37 34 -51 31 -28 -5 -73 32
-69 58 2 11 9 23 17 25 10 3 12 0 8 -11 -4 -11 -2 -14 9 -10 25 10 11 38 -19
38 -34 -1 -35 18 -1 44 51 40 168 17 132 -26 -10 -13 -13 -12 -20 6 -9 26 -14
26 -28 1 -9 -17 -7 -22 14 -31 20 -10 30 -9 51 5 24 15 25 15 25 -1 1 -26 60
44 111 132 63 107 88 135 133 155 22 11 52 28 64 39 21 19 23 26 17 71 -7 54
12 183 27 174 4 -3 8 -13 8 -23 0 -10 18 -54 40 -98 63 -127 181 -242 318
-312 l43 -22 57 32 c173 97 277 223 329 399 12 41 22 63 22 49 1 -14 9 -50 20
-80 12 -36 17 -72 14 -109 -4 -50 -1 -57 22 -73 25 -18 25 -18 25 5 0 16 -3
19 -9 10 -13 -21 -33 12 -29 50 l3 33 28 -43 c34 -53 45 -78 29 -68 -7 4 -12
3 -12 -2 0 -6 17 -17 38 -25 43 -17 60 -39 114 -147 38 -78 108 -159 108 -127
0 15 2 15 20 -3 23 -23 33 -24 61 -10 25 14 25 50 0 50 -26 0 -36 -17 -14 -23
14 -4 13 -5 -4 -6 -18 -1 -23 4 -23 24 0 41 70 46 128 9 27 -18 28 -30 2 -37
-21 -5 -27 -31 -10 -42 6 -3 10 1 10 10 0 20 24 14 28 -6 1 -9 -7 -28 -19 -43
-18 -23 -23 -25 -37 -14 -13 11 -15 11 -8 -2 4 -8 0 -6 -8 4 -13 16 -16 17
-16 4 0 -8 -24 -39 -52 -67 -49 -49 -50 -51 -18 -34 19 10 37 21 40 24 11 14
50 20 50 8 0 -8 3 -9 13 0 8 6 18 7 22 3 5 -4 5 -2 1 5 -4 7 3 19 17 28 33 21
61 87 53 120 -4 14 -25 46 -47 70 -47 51 -51 90 -9 90 18 0 26 -6 28 -23 4
-29 22 -18 22 13 0 19 -9 28 -37 40 -20 9 -48 18 -62 20 -21 4 -22 4 -6 -3 19
-8 18 -9 -5 -23 -14 -7 -31 -12 -37 -11 -8 2 -10 -3 -6 -14 5 -14 3 -16 -11
-11 -11 5 -15 3 -10 -4 5 -8 -3 -10 -23 -7 -26 4 -29 2 -25 -19 2 -12 1 -30
-2 -39 -5 -14 -9 -14 -24 -3 -14 11 -13 9 2 -9 11 -12 14 -22 8 -22 -5 0 -8
-9 -4 -22 8 -31 -11 -16 -47 39 -20 30 -29 54 -25 67 3 14 2 17 -3 8 -7 -9
-14 -2 -26 23 -22 46 -22 47 8 33 13 -6 23 -14 21 -17 -2 -3 7 -7 21 -8 15 0
22 2 16 5 -5 4 -13 19 -17 35 -6 26 -5 27 21 22 22 -5 20 -2 -9 10 -29 13 -40
26 -52 63 -21 60 -21 79 -1 62 8 -7 13 -16 10 -20 -3 -5 -1 -11 5 -15 22 -14
8 22 -21 53 -16 17 -26 32 -21 32 5 0 12 18 15 40 3 27 26 72 71 138 36 53 72
113 80 133 14 34 14 36 -28 106 -23 39 -48 97 -55 130 -16 72 -60 159 -98 199
-38 38 -95 84 -105 84 -3 0 -9 -15 -11 -32 -3 -29 -4 -27 -5 10 -2 50 15 56
53 17 14 -13 25 -20 25 -15 0 13 -50 50 -67 50 -8 0 -17 -9 -20 -20z m57 -56
c0 -8 -7 -14 -15 -14 -10 0 -15 10 -15 26 0 22 2 25 15 14 8 -7 15 -19 15 -26z
m-1070 12 c0 -16 -24 -38 -33 -30 -8 9 11 44 23 44 6 0 10 -6 10 -14z m1010
-15 c0 -11 4 -22 9 -25 4 -3 7 -27 6 -53 -3 -48 -3 -48 5 -8 4 22 8 33 9 25 1
-12 3 -13 10 -1 5 8 8 -7 6 -38 -2 -53 8 -81 12 -32 1 15 3 32 4 37 5 29 -3
52 -21 57 -11 3 -20 10 -20 16 0 9 6 9 19 1 16 -8 22 -6 29 6 8 14 13 12 43
-14 35 -31 84 -116 93 -162 1 -3 5 -11 9 -17 5 -8 3 -13 -4 -13 -9 0 -9 -4 1
-15 6 -8 9 -19 6 -24 -4 -5 -2 -12 4 -16 5 -3 10 -17 10 -30 0 -13 5 -27 12
-31 7 -5 8 -2 3 7 -20 35 10 -4 40 -52 21 -34 30 -58 24 -63 -5 -6 -9 -19 -9
-29 0 -13 -5 -17 -16 -13 -8 3 -12 2 -9 -4 8 -13 -4 -52 -15 -45 -4 3 -11 -6
-14 -20 -4 -14 -11 -25 -16 -25 -6 0 -10 -6 -10 -12 0 -7 -9 -24 -19 -37 l-19
-25 5 27 c3 15 10 27 15 27 5 0 6 4 3 10 -3 5 0 22 8 37 7 15 12 36 9 47 -2
10 0 16 5 13 5 -3 9 2 9 11 0 62 5 83 17 76 9 -6 9 -4 -1 8 -7 8 -10 23 -6 32
3 9 1 16 -5 16 -6 0 -11 -18 -11 -41 0 -34 -3 -40 -16 -35 -14 5 -15 4 -5 -8
17 -20 4 -89 -15 -82 -7 3 -16 1 -19 -5 -4 -5 -1 -8 6 -7 6 2 14 -3 16 -9 3
-7 -2 -13 -11 -13 -9 0 -16 -5 -16 -11 0 -5 5 -7 12 -3 8 5 9 0 4 -17 -3 -13
-9 -36 -12 -51 -4 -16 -11 -28 -16 -28 -5 0 -6 5 -3 10 3 6 1 10 -4 10 -13 0
-14 -17 -2 -25 5 -3 7 -20 5 -38 -5 -37 -12 -72 -14 -72 -7 0 -5 -61 2 -66 5
-3 10 -20 11 -37 1 -18 5 -32 8 -32 6 0 49 -83 49 -95 0 -3 -13 1 -29 9 -16 9
-32 12 -36 8 -3 -4 -5 -2 -3 3 4 14 -77 86 -87 77 -5 -4 -5 -2 -1 5 4 7 -6 30
-23 53 -41 57 -83 166 -85 222 0 27 -4 48 -8 48 -18 0 20 216 57 319 8 24 14
62 14 85 l-1 41 -8 -50 c-4 -27 -20 -90 -34 -139 -14 -48 -27 -96 -27 -105 -1
-9 -5 37 -9 103 -5 71 -13 121 -19 126 -8 5 0 38 29 113 39 101 60 131 60 88z
m-1174 -220 c-4 -6 -13 -11 -19 -10 -9 0 -9 2 0 5 7 3 9 13 6 22 -5 13 -3 14
7 5 7 -6 9 -16 6 -22z m1076 -53 c3 -29 4 -120 3 -203 -3 -159 -10 -195 -60
-298 -30 -60 -110 -167 -125 -167 -6 0 -19 9 -30 20 -11 11 -23 20 -27 20 -22
0 -43 13 -43 26 0 11 -4 12 -19 4 -29 -15 -35 -12 -20 8 12 14 10 14 -8 -2
-22 -18 -60 -16 -48 3 3 5 1 12 -4 16 -6 3 -8 -5 -5 -20 4 -22 2 -24 -26 -21
-16 2 -30 -1 -30 -5 0 -5 8 -9 18 -10 12 0 13 -2 3 -6 -8 -3 -20 2 -27 11 -6
9 -16 16 -20 15 -26 -4 -45 2 -38 14 5 8 2 8 -9 -2 -15 -12 -21 -9 -18 12 2
10 -17 9 -24 -3 -3 -5 -12 -7 -21 -3 -11 4 -12 9 -3 19 7 9 8 14 1 14 -6 0
-12 -5 -14 -11 -3 -9 -10 -9 -27 1 -13 6 -21 8 -18 3 6 -9 59 -34 101 -47 18
-6 18 -7 2 -25 -31 -34 -53 -32 -91 7 -49 50 -98 133 -126 212 -21 58 -24 87
-27 263 l-4 198 192 -1 c106 -1 194 1 198 4 3 3 92 6 198 6 l192 0 4 -52z
m-1097 12 c3 -5 1 -10 -4 -10 -6 0 -11 5 -11 10 0 6 2 10 4 10 3 0 8 -4 11
-10z m71 -575 c-4 -11 0 -15 11 -13 9 2 18 -3 20 -9 3 -8 -4 -13 -15 -13 -12
0 -23 -9 -27 -20 -9 -27 -26 -25 -22 3 3 21 27 67 35 67 2 0 1 -7 -2 -15z
m649 -65 c-3 -5 -12 -10 -18 -10 -7 0 -6 4 3 10 19 12 23 12 15 0z m100 -6
c17 -8 40 -25 52 -36 l22 -21 -22 -17 c-12 -10 -51 -35 -87 -57 l-66 -40 -54
28 c-70 37 -135 82 -134 94 0 15 75 54 93 48 9 -3 26 -9 37 -15 16 -8 30 -5
60 11 47 25 60 25 99 5z m771 -159 c0 -30 -3 -35 -22 -35 -13 0 -34 -4 -48
-10 -24 -9 -26 -7 -26 15 0 17 6 25 18 25 9 0 31 9 47 20 17 11 30 20 31 20 0
0 0 -16 0 -35z"/>
<path d="M7147 4890 c-3 -11 0 -23 5 -27 7 -4 8 -1 3 7 -6 10 -4 12 9 7 13 -5
17 -2 14 10 -5 24 -25 27 -31 3z"/>
<path d="M7112 4880 c0 -14 2 -19 5 -12 2 6 2 18 0 25 -3 6 -5 1 -5 -13z"/>
<path d="M7190 4820 c-19 -16 -31 -30 -27 -30 4 0 17 9 29 20 12 10 25 17 30
14 4 -3 8 2 8 10 0 20 1 21 -40 -14z"/>
<path d="M7206 4795 c-11 -8 -17 -17 -14 -20 2 -3 13 4 23 15 21 23 18 25 -9
5z"/>
<path d="M7229 4763 c-13 -16 -12 -17 4 -4 16 13 21 21 13 21 -2 0 -10 -8 -17
-17z"/>
<path d="M7115 4760 c3 -5 8 -10 11 -10 2 0 4 5 4 10 0 6 -5 10 -11 10 -5 0
-7 -4 -4 -10z"/>
<path d="M7165 4760 c3 -5 8 -10 11 -10 2 0 4 5 4 10 0 6 -5 10 -11 10 -5 0
-7 -4 -4 -10z"/>
<path d="M7195 4740 c3 -5 11 -10 16 -10 6 0 7 5 4 10 -3 6 -11 10 -16 10 -6
0 -7 -4 -4 -10z"/>
<path d="M7130 4730 c-8 -5 -12 -12 -9 -15 4 -3 12 1 19 10 14 17 11 19 -10 5z"/>
<path d="M7222 4710 c-12 -12 -22 -24 -22 -27 0 -4 11 4 25 17 23 22 29 30 22
30 -2 0 -13 -9 -25 -20z"/>
<path d="M7072 4685 c0 -16 2 -22 5 -12 2 9 2 23 0 30 -3 6 -5 -1 -5 -18z"/>
<path d="M7173 4675 c0 -8 4 -12 9 -9 5 3 6 10 3 15 -9 13 -12 11 -12 -6z"/>
<path d="M7236 4673 c-6 -14 -5 -15 5 -6 7 7 10 15 7 18 -3 3 -9 -2 -12 -12z"/>
<path d="M7090 4669 c0 -5 5 -7 10 -4 6 3 10 8 10 11 0 2 -4 4 -10 4 -5 0 -10
-5 -10 -11z"/>
<path d="M7146 4656 c7 -18 -14 -19 -29 -1 -5 6 -5 -1 -2 -14 5 -16 4 -21 -4
-17 -6 4 -11 1 -12 -6 0 -7 -5 -4 -10 7 -8 19 -9 19 -6 1 3 -28 19 -29 55 -2
28 20 30 25 17 36 -13 11 -14 10 -9 -4z"/>
<path d="M7222 4644 c10 -10 20 -16 22 -13 3 3 -5 11 -17 18 -21 13 -21 12 -5
-5z"/>
<path d="M7200 4570 c0 -5 5 -10 11 -10 5 0 7 5 4 10 -3 6 -8 10 -11 10 -2 0
-4 -4 -4 -10z"/>
<path d="M7176 4515 c-11 -8 -15 -15 -9 -15 6 0 16 7 23 15 16 19 11 19 -14 0z"/>
<path d="M7138 4479 c6 -9 8 -19 4 -23 -4 -4 7 0 25 10 33 20 38 33 5 15 -13
-7 -23 -7 -32 2 -12 10 -12 9 -2 -4z"/>
<path d="M7184 4423 c0 -10 -5 -17 -11 -15 -7 1 -13 -2 -13 -8 0 -13 17 -13
25 0 4 6 11 8 16 5 14 -10 11 11 -5 24 -11 9 -14 8 -12 -6z"/>
<path d="M7017 4393 c31 -25 43 -29 43 -12 0 5 -4 8 -9 4 -5 -3 -12 3 -16 14
-3 12 -14 19 -26 18 -19 -1 -18 -3 8 -24z"/>
<path d="M7140 4371 c0 -10 19 -25 25 -20 1 2 -3 10 -11 17 -8 7 -14 8 -14 3z"/>
<path d="M7114 4327 c-4 -6 -4 -9 1 -5 4 4 14 3 22 -4 7 -6 15 -9 18 -7 2 3
-4 10 -15 17 -15 9 -21 9 -26 -1z"/>
<path d="M7126 4255 c-11 -8 -17 -17 -14 -20 2 -3 13 4 23 15 21 23 18 25 -9
5z"/>
<path d="M6500 4776 c0 -21 26 -67 41 -71 22 -7 24 -16 8 -32 -16 -16 6 -26
30 -13 16 8 22 7 30 -8 7 -13 6 -23 -2 -31 -9 -10 -8 -11 6 -5 12 4 16 12 11
26 -4 13 -2 18 4 14 6 -3 13 -2 17 3 3 6 -3 8 -14 6 -11 -2 -22 2 -24 9 -4 9
2 11 20 8 22 -4 24 -3 13 14 -13 21 -92 84 -105 84 -4 0 -1 -8 8 -18 10 -10
14 -21 11 -25 -3 -3 3 -3 14 0 11 2 23 -1 28 -8 5 -8 2 -11 -8 -6 -9 3 -21 0
-27 -6 -14 -14 -41 11 -44 41 -1 12 -5 22 -9 22 -4 0 -8 -2 -8 -4z m90 -91 c0
-2 -10 -10 -22 -16 -21 -11 -22 -11 -9 4 13 16 31 23 31 12z"/>
<path d="M6448 4674 c-10 -10 -21 -13 -30 -8 -27 17 -58 15 -59 -3 -1 -10 -2
-24 -3 -31 0 -7 -12 -21 -25 -32 l-25 -18 27 5 c15 3 24 9 21 14 -9 14 26 10
41 -5 17 -17 7 -30 -12 -15 -10 9 -13 8 -13 -5 0 -9 6 -16 13 -16 8 0 7 -4 -3
-10 -11 -7 -12 -10 -2 -10 10 0 12 -8 7 -29 -5 -23 -2 -32 14 -40 11 -6 27 -8
35 -5 12 5 15 2 10 -10 -7 -18 4 -20 26 -6 10 7 11 13 5 18 -14 9 -13 32 3 60
11 19 10 22 -3 22 -9 0 -14 4 -11 8 3 5 -6 21 -20 38 -15 18 -22 22 -17 10 4
-13 2 -17 -7 -14 -7 2 -15 15 -17 28 -4 29 -13 40 -13 17 0 -20 -16 -23 -23
-4 -7 19 5 34 26 34 10 0 17 -8 18 -21 0 -12 3 -16 5 -9 3 7 11 10 19 7 7 -3
16 3 20 15 4 13 11 18 22 14 11 -4 14 -2 9 5 -10 16 -19 15 -38 -4z m6 -122
c9 -18 13 -32 9 -31 -19 3 -23 -2 -13 -21 7 -14 7 -20 0 -20 -5 0 -10 5 -10
10 0 6 -4 10 -10 10 -5 0 -7 -6 -4 -14 4 -11 0 -13 -15 -9 -21 5 -24 22 -7 35
6 4 4 13 -3 22 -11 13 -11 16 -1 16 8 0 10 3 7 7 -4 3 1 12 11 19 9 7 18 12
18 11 1 -1 9 -17 18 -35z"/>
<path d="M6416 4542 c-2 -4 -1 -14 4 -22 7 -11 9 -9 7 8 -1 24 -3 26 -11 14z"/>
<path d="M6500 4672 c0 -5 7 -15 15 -22 8 -7 15 -9 15 -6 0 4 -7 14 -15 22 -8
9 -15 11 -15 6z"/>
<path d="M6660 4658 c0 -20 34 -25 45 -7 4 6 13 8 21 5 8 -3 14 -1 14 4 0 14
-16 12 -40 -2 -17 -11 -22 -10 -30 2 -8 13 -10 12 -10 -2z"/>
<path d="M6758 4643 c10 -4 10 -8 0 -21 -11 -15 -11 -15 3 -4 14 10 18 10 23
-4 9 -23 7 -36 -4 -29 -5 3 -10 1 -10 -4 0 -14 17 -14 25 -1 3 5 12 7 19 4 8
-3 17 0 22 7 5 9 2 10 -9 6 -11 -4 -23 4 -37 23 -12 17 -27 30 -33 29 -8 0 -8
-2 1 -6z"/>
<path d="M6483 4632 c-19 -6 -20 -9 -7 -26 7 -11 16 -18 18 -15 5 6 18 49 14
48 -2 -1 -13 -4 -25 -7z"/>
<path d="M6545 4632 c6 -4 11 -13 10 -21 0 -20 -25 -26 -25 -6 0 9 -4 13 -10
10 -5 -3 -10 -13 -10 -22 0 -9 3 -13 6 -10 4 3 15 2 25 -4 15 -7 19 -6 19 5 0
8 9 23 19 33 19 18 19 18 -12 20 -18 1 -27 -1 -22 -5z"/>
<path d="M6713 4624 c0 -7 4 -11 8 -8 5 3 11 -7 15 -21 5 -20 9 -24 18 -14 8
8 8 13 -1 16 -7 3 -13 11 -13 18 0 7 -6 15 -13 18 -8 3 -14 -1 -14 -9z"/>
<path d="M6677 4623 c-14 -13 -7 -42 8 -37 8 4 15 10 15 16 0 5 -4 6 -10 3 -5
-3 -10 -2 -10 4 0 5 6 12 13 14 6 3 7 6 1 6 -6 1 -14 -2 -17 -6z"/>
<path d="M6620 4599 c0 -5 5 -7 10 -4 6 3 10 8 10 11 0 2 -4 4 -10 4 -5 0 -10
-5 -10 -11z"/>
<path d="M6574 4578 c-4 -13 -8 -30 -8 -38 -1 -9 -8 -14 -18 -12 -10 2 -18 -2
-18 -8 0 -5 7 -10 15 -10 8 0 15 -5 15 -11 0 -6 9 -9 20 -6 27 7 36 -10 10
-18 -12 -4 -27 -1 -35 5 -18 15 -20 -1 -3 -18 8 -8 9 -12 1 -12 -21 0 -40 29
-36 53 3 14 -1 28 -7 32 -9 5 -10 1 -5 -15 6 -19 4 -22 -9 -17 -19 8 -21 -7
-3 -25 8 -7 12 -19 9 -27 -3 -8 0 -11 7 -7 6 4 11 0 11 -9 0 -9 -4 -13 -10
-10 -9 5 -15 -15 -11 -37 2 -17 -19 -6 -38 20 -11 15 -21 21 -21 14 0 -7 -4
-10 -10 -7 -6 3 -10 -4 -10 -16 0 -12 3 -19 7 -16 3 4 13 1 21 -5 8 -7 26 -11
40 -10 21 1 32 -6 49 -36 l22 -37 1 43 c0 26 4 41 10 37 6 -3 10 -16 10 -27 0
-21 0 -21 25 2 14 13 25 19 25 13 0 -5 -9 -18 -20 -28 -11 -10 -20 -32 -21
-49 0 -26 -2 -28 -9 -11 -8 18 -9 18 -10 -5 -2 -14 -2 -28 -2 -31 1 -3 -6 -6
-14 -6 -7 0 -14 4 -14 9 0 5 -5 6 -10 3 -19 -12 1 -25 39 -25 45 0 53 6 39 30
-19 30 0 69 62 127 33 31 58 59 55 62 -6 6 -36 10 -99 14 -34 1 -40 -1 -41
-21 -2 -30 -14 -40 -25 -22 -14 21 -8 32 28 49 24 12 30 21 25 36 -7 27 -15
33 -20 18 -3 -7 -9 -13 -14 -13 -13 0 -11 26 4 42 13 14 16 42 5 53 -3 4 -10
-4 -14 -17z m66 -144 c0 -15 -33 -74 -42 -74 -6 0 -7 7 -4 16 3 9 9 27 12 40
5 20 34 36 34 18z m40 -12 c0 -18 -18 -42 -31 -42 -4 0 -2 14 4 30 13 33 27
40 27 12z m-136 -34 c3 -13 6 -30 6 -37 0 -23 -16 0 -24 32 -8 32 9 37 18 5z"/>
<path d="M6289 4574 c-1 -10 -1 -25 0 -31 1 -7 -4 -13 -11 -13 -7 0 -21 -12
-31 -26 -20 -27 -15 -64 8 -64 9 0 12 -6 9 -17 -5 -15 -4 -16 5 -3 8 11 7 18
-4 26 -8 6 -11 15 -7 19 4 5 1 5 -5 1 -7 -4 -13 -4 -13 -1 0 11 28 35 42 35
10 0 10 2 -1 9 -11 7 -9 10 8 16 17 5 20 12 15 33 -9 35 -14 40 -15 16z"/>
<path d="M6339 4570 c-1 -8 -1 -18 0 -22 0 -5 -3 -8 -8 -8 -5 0 -7 -9 -4 -20
4 -14 1 -19 -8 -17 -8 2 -11 2 -6 0 4 -3 7 -11 7 -19 0 -16 -30 -15 -42 1 -5
6 -8 6 -8 -2 0 -15 18 -26 45 -29 19 -2 22 3 23 38 1 23 6 46 11 52 6 7 6 17
1 26 -9 13 -10 13 -11 0z"/>
<path d="M6480 4576 c0 -2 8 -10 18 -17 15 -13 16 -12 3 4 -13 16 -21 21 -21
13z"/>
<path d="M6640 4575 c-1 -5 -2 -14 -1 -19 1 -5 -6 -3 -15 5 -16 13 -16 12 -2
-16 8 -16 13 -36 11 -43 -3 -7 1 -12 8 -11 8 1 27 -1 44 -6 26 -7 27 -9 10
-17 -20 -8 -20 -8 0 -5 11 1 19 7 18 12 -1 6 3 15 8 21 7 8 -1 10 -26 7 -28
-3 -33 0 -29 12 5 11 2 13 -10 9 -9 -3 -16 -2 -16 4 0 11 30 21 48 15 6 -3 10
-9 7 -13 -3 -5 4 -8 15 -7 19 1 36 25 25 35 -3 3 -5 -1 -5 -9 -1 -10 -5 -8
-16 6 -12 16 -18 18 -34 7 -26 -16 -28 -15 -33 6 -3 9 -6 13 -7 7z"/>
<path d="M6842 4555 c-14 -31 -15 -35 -3 -35 8 0 23 51 17 58 -2 1 -8 -9 -14
-23z"/>
<path d="M6778 4551 c-7 -10 -17 -19 -23 -19 -5 0 -11 -5 -13 -10 -1 -5 8 -7
22 -5 17 4 23 10 19 21 -5 11 -2 14 10 9 11 -4 17 -1 17 8 0 21 -16 19 -32 -4z"/>
<path d="M6862 4510 c0 -14 2 -19 5 -12 2 6 2 18 0 25 -3 6 -5 1 -5 -13z"/>
<path d="M6356 4511 c-4 -7 -5 -15 -2 -18 9 -9 19 4 14 18 -4 11 -6 11 -12 0z"/>
<path d="M6746 4489 c-10 -10 -16 -26 -14 -36 3 -10 2 -42 -2 -70 l-6 -51 35
-5 c42 -5 88 13 82 34 -2 8 -3 27 -3 42 0 16 -6 31 -14 34 -8 3 -14 13 -14 23
0 15 6 18 28 14 19 -3 23 -2 12 5 -8 5 -18 7 -22 5 -4 -3 -8 -1 -8 5 0 5 5 11
11 13 7 2 -6 4 -27 4 -24 0 -46 -7 -58 -17z m37 -14 c-3 -9 -8 -14 -10 -11 -3
3 -2 9 2 15 9 16 15 13 8 -4z m-23 -16 c0 -15 5 -19 18 -15 29 10 46 -36 30
-80 -13 -37 -16 -38 -38 -24 -9 6 -11 10 -3 10 7 0 10 7 7 15 -6 14 -8 13 -20
-2 -12 -16 -13 -14 -14 19 0 20 5 40 11 44 8 4 8 9 0 17 -14 14 -14 37 -1 37
6 0 10 -9 10 -21z"/>
<path d="M6761 4414 c0 -11 3 -14 6 -6 3 7 2 16 -1 19 -3 4 -6 -2 -5 -13z"/>
<path d="M6648 4473 c7 -3 16 -2 19 1 4 3 -2 6 -13 5 -11 0 -14 -3 -6 -6z"/>
<path d="M6367 4450 c4 -14 0 -17 -20 -13 -14 3 -28 0 -32 -6 -3 -6 -2 -10 3
-9 6 2 9 -1 9 -7 -1 -5 -12 -10 -24 -9 -13 0 -23 -4 -23 -8 0 -4 11 -8 25 -8
13 0 29 -8 35 -17 10 -17 10 -16 9 2 -3 48 0 58 16 45 8 -7 12 -16 9 -21 -3
-5 0 -9 5 -9 6 0 11 5 11 11 0 5 5 7 10 4 6 -3 10 -4 10 0 0 3 -10 9 -21 13
-19 8 -20 10 -6 24 15 14 15 16 -2 21 -14 3 -17 0 -14 -13z"/>
<path d="M6486 4348 c5 -8 2 -9 -9 -5 -10 3 -17 4 -17 1 0 -2 11 -9 25 -14 14
-5 30 -20 35 -32 l9 -23 0 23 c1 12 -6 25 -14 28 -8 4 -15 12 -15 20 0 8 -5
14 -11 14 -5 0 -7 -5 -3 -12z"/>
<path d="M6256 4289 c-13 -19 -12 -25 6 -60 19 -37 36 -54 25 -25 -7 18 3 28
17 17 14 -11 67 -20 61 -11 -3 4 -19 10 -36 14 -26 5 -29 8 -19 21 20 25 4 48
-28 40 -21 -5 -24 -4 -15 6 7 7 22 9 38 5 23 -6 27 -11 23 -36 -4 -27 -2 -30
21 -29 17 1 20 3 9 6 -10 2 -18 13 -18 23 0 35 -12 50 -41 50 -17 0 -34 -8
-43 -21z m54 -23 c0 -7 -6 -19 -14 -25 -11 -9 -18 -8 -31 6 -17 16 -16 17 1
24 30 12 44 10 44 -5z"/>
<path d="M6784 4259 c-3 -6 -20 -20 -38 -31 -22 -14 -25 -18 -8 -13 13 4 22 2
22 -5 0 -7 5 -6 14 2 8 7 12 15 11 18 -2 3 1 12 6 20 7 11 8 8 5 -10 -3 -14
-5 -28 -5 -31 -2 -11 -52 -29 -63 -23 -7 4 -8 2 -4 -4 4 -7 1 -12 -9 -12 -10
0 -13 5 -9 12 4 7 3 8 -5 4 -6 -4 -9 -12 -6 -17 4 -5 -1 -9 -9 -9 -9 0 -16 -5
-16 -11 0 -13 53 -2 58 12 2 5 17 9 32 9 16 0 32 5 36 11 4 8 9 7 15 -2 4 -7
11 -11 14 -7 4 3 0 12 -7 19 -8 7 -12 26 -10 46 4 32 -9 45 -24 22z"/>
<path d="M6473 4233 c9 -2 23 -2 30 0 6 3 -1 5 -18 5 -16 0 -22 -2 -12 -5z"/>
<path d="M6627 4233 c-15 -14 -6 -23 24 -23 27 0 30 2 19 15 -13 16 -32 19
-43 8z"/>
<path d="M6479 4171 l-22 -18 21 2 c27 2 48 20 34 29 -5 3 -20 -2 -33 -13z"/>
<path d="M6660 4180 c-9 -6 -10 -10 -3 -10 6 0 15 5 18 10 8 12 4 12 -15 0z"/>
<path d="M6833 5040 c-6 -27 -6 -50 -2 -50 5 0 9 11 9 24 0 14 4 36 10 50 5
14 6 26 1 26 -5 0 -13 -22 -18 -50z"/>
<path d="M6125 5072 c6 -4 10 -21 10 -38 -1 -17 5 -36 12 -43 15 -14 16 -7 4
37 -10 35 -1 42 20 16 20 -24 21 -74 1 -74 -8 0 -13 -2 -10 -5 9 -9 118 19
118 31 0 10 -7 9 -27 -2 -39 -20 -53 -18 -53 9 0 25 -47 77 -71 77 -8 0 -10
-3 -4 -8z"/>
<path d="M6916 5056 c-21 -18 -26 -29 -21 -45 5 -18 2 -21 -21 -21 -15 0 -25
-2 -23 -4 8 -7 64 -17 57 -10 -4 3 -3 15 3 25 7 14 6 19 -2 19 -7 0 -5 8 6 20
36 40 42 22 19 -57 -4 -13 -2 -23 4 -23 5 0 9 6 9 13 -1 24 16 77 25 77 5 0 3
7 -6 15 -18 18 -15 19 -50 -9z"/>
<path d="M6365 5030 c0 -16 3 -30 8 -30 4 0 7 14 7 30 0 17 -3 30 -7 30 -5 0
-8 -13 -8 -30z"/>
<path d="M6260 5034 c0 -8 5 -12 10 -9 6 4 8 11 5 16 -9 14 -15 11 -15 -7z"/>
<path d="M6316 4993 c5 -5 12 -12 16 -18 4 -6 8 -2 8 8 0 9 -7 17 -17 17 -9 0
-12 -3 -7 -7z"/>
<path d="M6763 4970 c2 -8 12 -16 23 -17 13 -2 15 -1 4 4 -8 3 -19 11 -23 17
-6 7 -7 6 -4 -4z"/>
<path d="M6398 4963 c12 -2 30 -2 40 0 9 3 -1 5 -23 4 -22 0 -30 -2 -17 -4z"/>
<path d="M6651 4954 c0 -11 3 -14 6 -6 3 7 2 16 -1 19 -3 4 -6 -2 -5 -13z"/>
<path d="M6688 4963 c7 -3 16 -2 19 1 4 3 -2 6 -13 5 -11 0 -14 -3 -6 -6z"/>
<path d="M6328 4953 c6 -2 18 -2 25 0 6 3 1 5 -13 5 -14 0 -19 -2 -12 -5z"/>
<path d="M6837 4943 c8 -3 11 -14 7 -29 -3 -13 -2 -24 2 -24 5 0 10 14 11 30
2 23 -2 30 -15 29 -10 0 -12 -3 -5 -6z"/>
<path d="M6234 4924 c9 -8 16 -20 16 -25 0 -5 8 -9 18 -9 16 1 16 1 0 11 -10
5 -18 17 -18 24 0 8 -7 15 -16 15 -14 0 -14 -1 0 -16z"/>
<path d="M6878 4933 c7 -3 16 -2 19 1 4 3 -2 6 -13 5 -11 0 -14 -3 -6 -6z"/>
<path d="M6188 4923 c7 -3 16 -2 19 1 4 3 -2 6 -13 5 -11 0 -14 -3 -6 -6z"/>
<path d="M6463 4923 c9 -2 23 -2 30 0 6 3 -1 5 -18 5 -16 0 -22 -2 -12 -5z"/>
<path d="M6543 4923 c15 -2 37 -2 50 0 12 2 0 4 -28 4 -27 0 -38 -2 -22 -4z"/>
<path d="M6633 4923 c9 -2 23 -2 30 0 6 3 -1 5 -18 5 -16 0 -22 -2 -12 -5z"/>
<path d="M6918 4923 c7 -3 16 -2 19 1 4 3 -2 6 -13 5 -11 0 -14 -3 -6 -6z"/>
<path d="M6730 4916 c0 -2 7 -6 15 -10 8 -3 15 -1 15 4 0 6 -7 10 -15 10 -8 0
-15 -2 -15 -4z"/>
<path d="M6323 4903 c9 -2 23 -2 30 0 6 3 -1 5 -18 5 -16 0 -22 -2 -12 -5z"/>
<path d="M6788 4903 c6 -2 18 -2 25 0 6 3 1 5 -13 5 -14 0 -19 -2 -12 -5z"/>
<path d="M5982 4880 c0 -14 2 -19 5 -12 2 6 2 18 0 25 -3 6 -5 1 -5 -13z"/>
<path d="M5930 4874 c6 -6 7 -14 3 -17 -3 -4 -2 -7 4 -7 6 0 13 8 15 18 4 12
-1 18 -13 18 -12 0 -15 -4 -9 -12z"/>
<path d="M6740 4881 c0 -4 -62 -6 -137 -4 -76 2 -158 1 -181 -4 -29 -5 18 -8
142 -8 142 0 186 3 186 13 0 6 -2 12 -5 12 -3 0 -5 -4 -5 -9z"/>
<path d="M5916 4792 c-3 -5 1 -9 9 -9 8 0 12 4 9 9 -3 4 -7 8 -9 8 -2 0 -6 -4
-9 -8z"/>
<path d="M5915 4750 c3 -5 8 -10 11 -10 2 0 4 5 4 10 0 6 -5 10 -11 10 -5 0
-7 -4 -4 -10z"/>
<path d="M5876 4732 c-3 -5 1 -9 9 -9 8 0 15 4 15 9 0 4 -4 8 -9 8 -6 0 -12
-4 -15 -8z"/>
<path d="M5945 4730 c3 -5 8 -10 11 -10 2 0 4 5 4 10 0 6 -5 10 -11 10 -5 0
-7 -4 -4 -10z"/>
<path d="M5840 4712 c0 -4 15 -16 33 -26 l32 -19 -28 26 c-29 28 -37 32 -37
19z"/>
<path d="M5970 4691 c0 -7 -6 -11 -15 -8 -8 4 -17 2 -20 -4 -4 -5 -3 -9 2 -8
32 6 13 -32 -32 -61 -22 -14 -24 -18 -10 -24 9 -3 13 -2 10 3 -7 12 12 24 25
16 8 -5 8 -11 0 -20 -8 -10 -8 -15 1 -21 7 -4 9 -3 6 3 -11 18 40 45 62 34 25
-14 31 -5 31 42 0 22 -3 37 -7 33 -4 -4 -6 -24 -5 -44 l2 -37 -16 45 c-17 48
-34 73 -34 51z m24 -61 c5 -17 4 -21 -2 -11 -7 9 -12 10 -16 2 -4 -6 -16 -11
-27 -11 -11 0 -18 4 -14 10 3 5 13 6 22 3 11 -4 14 -3 9 5 -4 7 -4 22 0 34 7
24 16 14 28 -32z"/>
<path d="M5906 4662 c-3 -5 1 -9 9 -9 8 0 12 4 9 9 -3 4 -7 8 -9 8 -2 0 -6 -4
-9 -8z"/>
<path d="M5880 4640 c0 -5 5 -10 11 -10 5 0 7 5 4 10 -3 6 -8 10 -11 10 -2 0
-4 -4 -4 -10z"/>
<path d="M5912 4520 c-12 -19 -11 -20 8 -8 11 7 20 16 20 20 0 15 -15 8 -28
-12z"/>
<path d="M5961 4457 c-13 -21 -12 -21 5 -5 10 10 16 20 13 22 -3 3 -11 -5 -18
-17z"/>
<path d="M5930 4379 c0 -5 5 -7 10 -4 6 3 10 8 10 11 0 2 -4 4 -10 4 -5 0 -10
-5 -10 -11z"/>
<path d="M5987 4336 c-10 -8 -14 -16 -10 -19 5 -3 14 3 21 14 14 22 13 23 -11
5z"/>
<path d="M5940 4266 c0 -2 8 -10 18 -17 15 -13 16 -12 3 4 -13 16 -21 21 -21
13z"/>
<path d="M5985 4220 c3 -5 8 -10 11 -10 2 0 4 5 4 10 0 6 -5 10 -11 10 -5 0
-7 -4 -4 -10z"/>
<path d="M7234 4125 c4 -24 16 -30 16 -7 0 12 -4 22 -9 22 -5 0 -8 -7 -7 -15z"/>
<path d="M7343 4043 c15 -2 37 -2 50 0 12 2 0 4 -28 4 -27 0 -38 -2 -22 -4z"/>
<path d="M5740 4030 l-55 -7 50 0 c28 -1 61 3 75 7 31 10 10 10 -70 0z"/>
<path d="M6244 3962 c11 -12 26 -22 35 -22 9 0 -26 -21 -78 -45 -96 -46 -150
-56 -171 -30 -18 22 -8 50 20 53 20 3 22 2 12 -11 -10 -11 -9 -17 1 -25 17
-14 40 1 35 23 -5 26 -31 39 -61 31 -56 -14 -60 -84 -7 -106 l31 -13 -28 -19
c-47 -32 -141 -78 -160 -78 -17 -1 -17 -1 0 -14 16 -12 25 -11 72 9 l54 24 3
-21 c5 -34 27 -34 26 0 -1 37 6 48 43 67 27 15 29 14 29 -3 0 -11 9 -31 20
-44 10 -14 16 -29 12 -33 -4 -4 4 -2 17 5 20 10 27 8 55 -17 17 -15 35 -31 40
-35 5 -4 3 -14 -5 -24 -13 -16 -12 -16 7 -4 17 10 27 9 70 -13 27 -13 60 -27
74 -31 14 -4 -11 11 -55 32 -85 41 -195 131 -161 132 10 0 36 10 57 22 l39 22
22 -21 c38 -33 52 -39 39 -15 -6 11 -11 34 -11 50 0 33 -22 57 -45 48 -23 -9
-18 -36 8 -37 20 -1 21 -1 2 -7 -11 -4 -32 -15 -46 -25 -15 -10 -42 -20 -61
-24 -29 -4 -36 -2 -40 15 -8 30 16 59 73 87 113 58 199 63 271 16 33 -21 33
-21 7 -21 -49 0 -78 -59 -40 -80 22 -11 51 -4 51 14 0 20 -12 27 -27 15 -10
-9 -13 -8 -13 4 0 23 30 29 56 12 24 -15 24 -15 24 18 0 55 -67 97 -157 97
-43 1 -68 7 -138 35 -20 8 -20 8 -1 -13z"/>
<path d="M6810 3959 c-36 -10 -78 -18 -93 -19 -32 0 -82 -23 -113 -52 -21 -19
-21 -19 -27 4 -10 36 -26 9 -28 -47 -1 -27 0 -56 2 -64 3 -10 -4 -15 -20 -15
-31 -1 -51 -30 -33 -48 11 -11 13 -10 10 2 -2 9 4 15 17 15 14 0 21 -8 23 -27
2 -20 9 -28 23 -28 14 0 19 7 19 30 0 23 5 30 19 30 11 0 22 -6 25 -12 3 -7 4
-2 3 12 -2 20 -7 25 -29 25 -18 -1 -28 4 -28 13 0 18 46 62 64 62 19 0 40 -27
27 -34 -5 -3 -11 0 -14 6 -4 10 -7 10 -18 0 -12 -11 -11 -16 5 -27 25 -19 56
-3 56 28 0 30 -18 47 -49 47 l-26 1 23 19 c37 31 125 46 180 31 86 -23 131
-47 138 -76 8 -34 -9 -53 -31 -35 -28 23 -18 -17 13 -48 15 -15 21 -21 14 -12
-10 14 -8 18 12 28 15 7 26 21 28 37 l3 25 50 -32 c40 -27 51 -40 55 -67 4
-27 7 -31 16 -20 6 8 13 19 15 25 3 8 20 4 51 -11 38 -18 50 -20 63 -11 14 10
8 15 -42 36 -32 13 -76 35 -97 48 l-40 25 26 13 c48 25 44 97 -6 110 -31 7
-68 -12 -64 -34 5 -24 44 -23 40 2 -4 22 17 17 32 -8 9 -14 6 -21 -13 -37 -28
-23 -52 -19 -136 26 -33 17 -71 34 -84 38 l-24 6 24 20 c29 24 23 24 -61 0z"/>
<path d="M6760 3860 c-26 -26 -25 -45 3 -74 36 -38 51 -67 37 -76 -9 -5 -9 -9
-1 -14 20 -13 12 -28 -11 -21 -22 7 -22 6 -5 -11 15 -17 19 -17 27 -4 5 8 7
24 4 35 -6 18 -4 18 20 -4 14 -14 26 -28 26 -33 0 -9 -65 -44 -119 -63 -20 -8
-29 -14 -20 -14 9 -1 47 14 85 33 54 28 72 32 84 23 8 -6 -4 9 -26 34 -47 49
-74 97 -74 129 0 12 -4 18 -10 15 -5 -3 -10 1 -10 9 0 19 17 30 23 14 3 -10 7
-10 17 -1 16 15 6 43 -15 43 -8 0 -24 -9 -35 -20z"/>
<path d="M6808 3803 c7 -3 16 -2 19 1 4 3 -2 6 -13 5 -11 0 -14 -3 -6 -6z"/>
<path d="M6878 3803 c7 -3 16 -2 19 1 4 3 -2 6 -13 5 -11 0 -14 -3 -6 -6z"/>
<path d="M6850 3764 c-22 -12 -21 -19 4 -15 4 1 14 -4 22 -10 12 -10 13 -9 8
5 -3 9 -1 16 5 16 6 0 11 -7 11 -15 0 -8 5 -15 11 -15 13 0 -12 43 -27 46 -5
1 -20 -4 -34 -12z"/>
<path d="M5820 3746 c0 -2 8 -10 18 -17 15 -13 16 -12 3 4 -13 16 -21 21 -21
13z"/>
<path d="M7298 3743 c7 -3 16 -2 19 1 4 3 -2 6 -13 5 -11 0 -14 -3 -6 -6z"/>
<path d="M7348 3733 c12 -2 32 -2 45 0 12 2 2 4 -23 4 -25 0 -35 -2 -22 -4z"/>
<path d="M5758 3723 c6 -2 18 -2 25 0 6 3 1 5 -13 5 -14 0 -19 -2 -12 -5z"/>
<path d="M6274 3705 c-6 -15 2 -35 14 -35 4 0 7 11 7 25 0 27 -12 33 -21 10z"/>
<path d="M6906 3705 c-17 -13 -18 -17 -6 -28 8 -6 12 -8 8 -3 -4 5 3 17 15 27
26 22 11 25 -17 4z"/>
<path d="M7004 3706 c11 -9 24 -16 30 -16 12 0 7 5 -24 19 -24 11 -24 11 -6
-3z"/>
<path d="M7316 3706 c3 -8 12 -17 20 -20 12 -4 12 -2 4 14 -12 23 -32 27 -24
6z"/>
<path d="M7280 3692 c1 -9 26 -42 33 -42 11 0 -6 39 -19 44 -8 3 -14 2 -14 -2z"/>
<path d="M6354 3665 c-9 -19 -9 -25 4 -30 9 -3 13 -3 10 1 -4 4 -3 15 2 25 6
10 7 20 2 23 -4 2 -12 -6 -18 -19z"/>
<path d="M7058 3683 c7 -3 16 -2 19 1 4 3 -2 6 -13 5 -11 0 -14 -3 -6 -6z"/>
<path d="M7250 3680 c-9 -6 -10 -10 -3 -10 6 0 15 5 18 10 8 12 4 12 -15 0z"/>
<path d="M6048 3673 c7 -3 16 -2 19 1 4 3 -2 6 -13 5 -11 0 -14 -3 -6 -6z"/>
<path d="M6315 3670 c-3 -5 -1 -10 4 -10 6 0 11 5 11 10 0 6 -2 10 -4 10 -3 0
-8 -4 -11 -10z"/>
<path d="M6726 3671 c-3 -5 -16 -7 -28 -3 -21 5 -21 5 -2 -14 13 -14 20 -16
22 -7 4 17 12 16 33 -3 9 -8 19 -12 22 -7 3 4 -6 16 -18 26 -13 9 -26 13 -29
8z"/>
<path d="M6946 3671 c-5 -8 -2 -20 8 -29 17 -17 19 -9 7 22 -6 15 -10 16 -15
7z"/>
<path d="M6994 3659 c0 -10 4 -19 8 -19 4 0 8 6 8 14 0 8 -4 17 -8 20 -4 2 -8
-4 -8 -15z"/>
<path d="M5882 3635 c-10 -21 -9 -27 3 -32 9 -3 19 -3 22 1 4 3 2 6 -4 6 -6 0
-8 11 -5 25 6 32 -2 32 -16 0z"/>
<path d="M6425 3640 c-16 -18 -17 -20 -2 -14 9 3 17 11 17 18 1 6 7 -2 15 -19
l14 -30 -2 29 c-3 37 -18 43 -42 16z"/>
<path d="M7027 3653 c-9 -9 -9 -43 1 -43 4 0 8 11 8 25 2 27 1 29 -9 18z"/>
<path d="M7220 3650 c0 -5 5 -10 11 -10 5 0 7 -4 4 -10 -3 -5 2 -10 11 -10 16
0 16 1 -1 20 -20 23 -25 24 -25 10z"/>
<path d="M7250 3656 c0 -2 7 -6 15 -10 8 -3 15 -1 15 4 0 6 -7 10 -15 10 -8 0
-15 -2 -15 -4z"/>
<path d="M7420 3652 c0 -4 10 -13 23 -21 22 -14 22 -14 3 8 -20 22 -26 25 -26
13z"/>
<path d="M7501 3640 c7 -14 12 -28 11 -32 -1 -5 3 -8 8 -8 15 0 12 12 -11 40
l-20 25 12 -25z"/>
<path d="M6058 3633 c5 -10 12 -25 15 -33 3 -8 6 0 6 18 1 22 -4 32 -14 32
-12 0 -13 -5 -7 -17z"/>
<path d="M6495 3640 c-4 -7 1 -13 14 -17 12 -3 21 -9 21 -14 0 -5 5 -9 10 -9
17 0 11 20 -7 27 -10 4 -21 11 -24 16 -4 5 -10 4 -14 -3z"/>
<path d="M6570 3635 c-14 -17 -5 -35 18 -34 11 0 12 3 5 6 -7 2 -13 11 -13 18
0 7 6 16 13 18 7 4 8 6 1 6 -6 1 -17 -6 -24 -14z"/>
<path d="M6650 3635 c0 -9 7 -18 15 -22 23 -8 24 0 3 20 -15 14 -18 15 -18 2z"/>
<path d="M7064 3625 c-1 -14 2 -25 7 -25 5 0 9 11 9 25 0 33 -15 33 -16 0z"/>
<path d="M7107 3643 c-11 -10 -8 -55 3 -48 6 3 10 15 10 26 0 11 7 19 16 19
13 0 14 -3 5 -13 -6 -8 -8 -17 -4 -20 12 -13 18 -7 19 18 2 20 -3 25 -20 25
-13 0 -26 -3 -29 -7z"/>
<path d="M7188 3625 c2 -14 8 -25 13 -25 10 0 11 12 3 34 -10 25 -22 19 -16
-9z"/>
<path d="M5996 3625 c-3 -8 -1 -15 3 -15 5 0 11 7 15 15 3 8 1 15 -3 15 -5 0
-11 -7 -15 -15z"/>
<path d="M5622 3610 c-10 -16 -10 -20 1 -20 7 0 13 9 14 20 1 11 1 20 0 20 -1
0 -8 -9 -15 -20z"/>
<path d="M5950 3618 c0 -9 5 -20 11 -23 17 -11 20 0 4 21 -13 17 -14 17 -15 2z"/>
<path d="M6620 3615 c0 -8 4 -15 10 -15 5 0 7 7 4 15 -4 8 -8 15 -10 15 -2 0
-4 -7 -4 -15z"/>
<path d="M6910 3626 c0 -3 9 -10 20 -16 11 -6 20 -8 20 -6 0 3 -9 10 -20 16
-11 6 -20 8 -20 6z"/>
<path d="M5660 3610 c-9 -6 -10 -10 -3 -10 6 0 15 5 18 10 8 12 4 12 -15 0z"/>
<path d="M5710 3615 c0 -5 5 -17 10 -25 5 -8 10 -10 10 -5 0 6 -5 17 -10 25
-5 8 -10 11 -10 5z"/>
<path d="M7280 3600 c-19 -11 -31 -19 -27 -20 11 0 67 29 67 35 0 7 -1 7 -40
-15z"/>
<path d="M6490 3600 c20 -13 33 -13 25 0 -3 6 -14 10 -23 10 -15 0 -15 -2 -2
-10z"/>
<path d="M7370 3601 c0 -6 4 -13 10 -16 6 -3 7 1 4 9 -7 18 -14 21 -14 7z"/>
<path d="M5742 3574 c-7 -8 -12 -20 -9 -27 2 -7 9 -2 16 11 15 28 11 36 -7 16z"/>
<path d="M6135 3580 c-13 -6 -15 -9 -5 -9 8 0 22 4 30 9 18 12 2 12 -25 0z"/>
<path d="M6438 3573 c6 -2 18 -2 25 0 6 3 1 5 -13 5 -14 0 -19 -2 -12 -5z"/>
<path d="M6668 3573 c6 -2 18 -2 25 0 6 3 1 5 -13 5 -14 0 -19 -2 -12 -5z"/>
<path d="M7018 3573 c7 -3 16 -2 19 1 4 3 -2 6 -13 5 -11 0 -14 -3 -6 -6z"/>
<path d="M7218 3573 c7 -3 16 -2 19 1 4 3 -2 6 -13 5 -11 0 -14 -3 -6 -6z"/>
<path d="M6523 3563 c20 -2 54 -2 75 0 20 2 3 4 -38 4 -41 0 -58 -2 -37 -4z"/>
<path d="M7068 3563 c6 -2 18 -2 25 0 6 3 1 5 -13 5 -14 0 -19 -2 -12 -5z"/>
<path d="M7153 3563 c9 -2 23 -2 30 0 6 3 -1 5 -18 5 -16 0 -22 -2 -12 -5z"/>
<path d="M5978 3553 c17 -2 47 -2 65 0 17 2 3 4 -33 4 -36 0 -50 -2 -32 -4z"/>
<path d="M5230 3133 c0 -9 13 -13 40 -13 l40 0 0 -118 c0 -99 3 -119 15 -119
12 0 15 20 15 119 l0 118 41 0 c28 0 39 4 37 13 -7 18 -188 19 -188 0z"/>
<path d="M5478 3134 c-81 -43 -75 -213 8 -244 63 -24 123 2 150 66 18 43 18
75 -2 124 -26 64 -94 88 -156 54z m111 -40 c15 -19 21 -41 21 -79 0 -68 -26
-105 -75 -105 -58 0 -93 60 -79 136 14 73 91 101 133 48z"/>
<path d="M5690 3043 c0 -102 1 -105 29 -134 49 -49 126 -33 148 31 12 36 18
192 7 203 -3 3 -12 3 -20 0 -11 -4 -14 -28 -14 -102 0 -53 -4 -101 -8 -107
-14 -21 -47 -32 -70 -23 -32 12 -42 48 -42 148 0 71 -3 88 -15 88 -12 0 -15
-19 -15 -104z"/>
<path d="M5948 3144 c-16 -5 -18 -20 -18 -129 0 -96 3 -124 14 -128 22 -8 26
2 26 60 0 44 3 53 18 53 29 0 50 -22 61 -66 6 -23 18 -45 27 -48 14 -5 15 -1
9 31 -3 21 -13 51 -21 67 -12 25 -12 30 1 40 25 19 29 69 8 95 -19 23 -85 36
-125 25z m90 -36 c7 -7 12 -24 12 -40 0 -29 -23 -48 -59 -48 -18 0 -21 6 -21
50 0 48 1 50 28 50 15 0 33 -5 40 -12z"/>
<path d="M6136 3143 c-3 -4 -6 -61 -6 -128 0 -67 3 -124 6 -128 3 -3 12 -3 20
0 11 4 14 32 14 128 0 96 -3 124 -14 128 -8 3 -17 3 -20 0z"/>
<path d="M6252 3140 c-12 -5 -27 -21 -32 -35 -15 -39 4 -72 55 -97 84 -41 68
-106 -24 -93 -33 5 -42 3 -39 -6 6 -17 57 -31 88 -23 88 20 79 112 -15 155
-41 19 -48 65 -11 75 14 3 37 3 51 0 18 -5 25 -2 25 8 0 25 -53 34 -98 16z"/>
<path d="M6380 3133 c0 -9 13 -13 40 -13 l40 0 0 -118 c0 -99 3 -119 15 -119
12 0 15 20 15 119 l0 118 41 0 c28 0 39 4 37 13 -7 18 -188 19 -188 0z"/>
<path d="M6688 3143 c-16 -4 -18 -19 -18 -129 l0 -124 25 -6 c34 -8 96 4 118
23 24 22 22 77 -3 101 -18 17 -19 20 -5 32 16 13 20 57 7 77 -16 25 -78 38
-124 26z m92 -38 c17 -20 9 -48 -19 -61 -36 -18 -51 -7 -51 37 0 36 2 39 29
39 16 0 34 -7 41 -15z m2 -112 c37 -33 11 -83 -43 -83 -28 0 -29 1 -29 50 0
48 1 50 27 50 14 0 35 -7 45 -17z"/>
<path d="M6904 3117 c-85 -78 -39 -237 69 -237 67 0 117 58 117 137 0 116
-106 173 -186 100z m123 -19 c60 -67 27 -188 -52 -188 -49 0 -75 37 -75 105 0
67 27 105 74 105 21 0 40 -8 53 -22z"/>
<path d="M7194 3137 c-2 -7 -22 -65 -43 -129 -31 -92 -36 -118 -25 -122 16 -6
17 -4 33 47 12 35 15 37 56 37 41 0 44 -2 56 -37 16 -51 17 -53 33 -47 21 8
-63 256 -88 260 -9 1 -19 -3 -22 -9z m56 -144 c0 -2 -16 -3 -35 -3 -19 0 -35
3 -35 7 0 3 8 30 17 60 l17 53 18 -57 c10 -32 18 -59 18 -60z"/>
<path d="M7366 3143 c-3 -4 -6 -63 -6 -133 0 -106 2 -127 15 -127 12 0 15 13
15 59 0 54 1 58 24 58 30 0 48 -22 61 -73 7 -26 17 -41 28 -43 13 -2 16 3 13
14 -3 9 -8 31 -12 47 -4 17 -13 37 -20 46 -12 14 -11 18 6 34 27 24 26 76 -1
100 -19 18 -110 31 -123 18z m98 -39 c34 -33 3 -84 -51 -84 -21 0 -23 5 -23
50 0 49 1 50 29 50 16 0 37 -7 45 -16z"/>
<path d="M7578 3144 c-16 -5 -18 -20 -18 -134 l0 -129 58 3 c31 1 71 10 88 19
72 37 80 170 14 219 -25 18 -109 31 -142 22z m105 -36 c35 -18 46 -40 47 -91
0 -65 -38 -107 -99 -107 l-41 0 0 105 0 105 36 0 c19 0 45 -5 57 -12z"/>
</g>
</svg>
